<?xml version="1.0" encoding="UTF-8" standalone="no"?><svg xmlns="http://www.w3.org/2000/svg" xmlns:xlink="http://www.w3.org/1999/xlink" fill="#000000" height="42" preserveAspectRatio="xMidYMid meet" version="1" viewBox="2.0 3.0 44.0 42.0" width="44" zoomAndPan="magnify"><g data-name="41 Donation, Charity, Donate, Fundraising, Loan"><g id="change1_1"><path d="M42,16V12a1,1,0,0,0-1-1H34a4.92,4.92,0,0,0,1-3,5,5,0,0,0-5-5,9,9,0,0,0-8,4.9A9,9,0,0,0,14,3,5,5,0,0,0,9,8a4.92,4.92,0,0,0,1,3H3a1,1,0,0,0-1,1v4a1,1,0,0,0,1,1H41A1,1,0,0,0,42,16ZM30,5a3,3,0,0,1,0,6H23.07A7,7,0,0,1,30,5ZM11,8a3,3,0,0,1,3-3,7,7,0,0,1,6.93,6H14A3,3,0,0,1,11,8ZM27,36a10,10,0,0,0,2.86,7H23V18H39v8.2A10,10,0,0,0,27,36ZM5,18H21V43H8a3,3,0,0,1-3-3Z" fill="#ffffff"/></g><g id="change2_1"><path d="M37,27a9,9,0,1,0,9,9A9,9,0,0,0,37,27Zm3,7H36v1h3a1,1,0,0,1,1,1v3a1,1,0,0,1-1,1H38v1H36V40H34V38h4V37H35a1,1,0,0,1-1-1V33a1,1,0,0,1,1-1h1V31h2v1h2Z" fill="#d9d9d9"/></g></g></svg>